<?xml version="1.0" encoding="iso-8859-1"?>
<!-- Generator: Adobe Illustrator 19.0.0, SVG Export Plug-In . SVG Version: 6.00 Build 0)  -->
<svg version="1.1" id="Layer_1" xmlns="http://www.w3.org/2000/svg" xmlns:xlink="http://www.w3.org/1999/xlink" x="0px" y="0px"
	 viewBox="0 0 512 512" style="enable-background:new 0 0 512 512;" xml:space="preserve">
<rect x="312.039" y="287.942" style="fill:#A5C6E3;" width="152.097" height="64.035"/>
<rect x="231.989" y="63.803" style="fill:#1D71B8;" width="80.049" height="288.18"/>
<rect x="175.945" y="183.877" style="fill:#A5C6E3;" width="56.033" height="168.101"/>
<rect x="111.91" y="151.859" style="fill:#36A9E1;" width="64.035" height="200.129"/>
<rect x="47.87" y="111.829" style="fill:#A5C6E3;" width="64.035" height="240.148"/>
<rect x="7.845" y="351.977" style="fill:#36A9E1;" width="496.31" height="32.02"/>
<rect x="7.845" y="351.977" style="fill:#1D71B8;" width="160.099" height="32.02"/>
<g>
	<rect x="56.034" y="400.009" style="fill:#1D1D1B;" width="15.69" height="56.034"/>
	<rect x="440.277" y="400.009" style="fill:#1D1D1B;" width="15.69" height="56.034"/>
	<path style="fill:#1D1D1B;" d="M471.975,344.137v-64.041H319.879V55.958H224.14v112.07h-40.346v-24.015h-64.04v-40.025H40.026
		v240.15H0v47.71h512v-47.71h-40.025V344.137z M456.286,295.788v48.351H319.879v-48.351H456.286z M239.83,71.647h64.36v272.49
		h-64.36V175.873v-7.845L239.83,71.647L239.83,71.647z M183.795,183.718h40.346v160.42h-40.346L183.795,183.718L183.795,183.718z
		 M119.755,159.703h48.35v184.436h-48.35V159.703z M55.716,119.678h48.35v224.46h-48.35V119.678z M496.31,376.158H15.69v-16.33
		h480.62V376.158z"/>
</g>
<rect x="63.878" y="320.127" style="fill:#FFFFFF;" width="32.02" height="15.69"/>
<g>
	<rect x="63.878" y="128" style="fill:#1D1D1B;" width="32.02" height="15.69"/>
	<rect x="63.878" y="152.016" style="fill:#1D1D1B;" width="32.02" height="15.69"/>
	<rect x="71.88" y="176.032" style="fill:#1D1D1B;" width="16.01" height="15.69"/>
	<rect x="127.924" y="320.127" style="fill:#1D1D1B;" width="32.02" height="15.69"/>
</g>
<g>
	<rect x="136.083" y="167.873" style="fill:#FFFFFF;" width="15.69" height="56.033"/>
	<rect x="191.959" y="320.127" style="fill:#FFFFFF;" width="24.015" height="15.69"/>
</g>
<g>
	<rect x="191.959" y="192.046" style="fill:#1D1D1B;" width="24.015" height="15.69"/>
	<rect x="247.993" y="79.968" style="fill:#1D1D1B;" width="48.03" height="15.69"/>
	<rect x="247.993" y="103.984" style="fill:#1D1D1B;" width="48.03" height="15.69"/>
</g>
<rect x="256.005" y="128" style="fill:#FFFFFF;" width="32.02" height="15.69"/>
<rect x="264.164" y="303.956" style="fill:#1D1D1B;" width="15.69" height="32.02"/>
<rect x="328.21" y="303.956" style="fill:#FFFFFF;" width="15.69" height="32.02"/>
<g>
	<rect x="432.275" y="303.956" style="fill:#1D1D1B;" width="15.69" height="32.02"/>
	<rect x="408.259" y="303.956" style="fill:#1D1D1B;" width="15.69" height="32.02"/>
</g>
<g>
</g>
<g>
</g>
<g>
</g>
<g>
</g>
<g>
</g>
<g>
</g>
<g>
</g>
<g>
</g>
<g>
</g>
<g>
</g>
<g>
</g>
<g>
</g>
<g>
</g>
<g>
</g>
<g>
</g>
</svg>
